<svg width="15" height="10" viewBox="0 0 15 10" fill="none" xmlns="http://www.w3.org/2000/svg">
<path d="M4.36317 0.5C4.79537 0.5 5.19464 0.53293 5.56099 0.631718C5.92733 0.697578 6.22781 0.833412 6.49536 0.99806C6.76292 1.16271 6.96049 1.39733 7.09633 1.69781C7.22805 1.9983 7.29802 2.36464 7.29802 2.76391C7.29802 3.22904 7.19923 3.62831 6.96461 3.92879C6.76292 4.22928 6.43362 4.49683 6.03023 4.69441C6.59827 4.85906 7.03047 5.15954 7.29391 5.55881C7.55734 5.95808 7.72611 6.45614 7.72611 7.02418C7.72611 7.48931 7.62732 7.88858 7.45855 8.22199C7.29391 8.5554 7.02635 8.85589 6.72587 9.05346C6.42539 9.25516 6.05905 9.4198 5.65977 9.51859C5.2605 9.61738 4.86123 9.68324 4.46196 9.68324L0 9.69147V0.5H4.36317ZM4.09562 4.22928C4.46196 4.22928 4.76244 4.13049 4.99295 3.96172C5.22346 3.79296 5.32636 3.49659 5.32636 3.13025C5.32636 2.92856 5.29343 2.73098 5.22757 2.59926C5.16171 2.46754 5.06293 2.36464 4.92709 2.26585C4.79537 2.19999 4.65954 2.13413 4.49489 2.1012C4.33024 2.06827 4.16148 2.06827 3.9639 2.06827H2.0334V4.23339C2.0334 4.22928 4.09562 4.22928 4.09562 4.22928ZM4.19441 8.16025C4.3961 8.16025 4.59368 8.12732 4.76244 8.09439C4.92709 8.06146 5.09586 7.9956 5.22757 7.89269C5.35929 7.78979 5.4622 7.691 5.56099 7.52635C5.62684 7.3617 5.6927 7.16001 5.6927 6.92539C5.6927 6.46026 5.56099 6.12684 5.29343 5.89222C5.02588 5.69053 4.65954 5.59174 4.22734 5.59174H2.0334V8.15613H4.19441V8.16025Z" fill="white"/>
<path d="M10.6238 8.12721C10.8913 8.39477 11.2906 8.52648 11.8216 8.52648C12.1879 8.52648 12.5213 8.42769 12.7889 8.25893C13.0564 8.05724 13.2211 7.85966 13.2869 7.65797H14.917C14.6494 8.45651 14.2501 9.02454 13.7191 9.39089C13.1882 9.7243 12.5543 9.92188 11.7887 9.92188C11.2577 9.92188 10.7884 9.82309 10.3562 9.65432C9.92401 9.48967 9.5906 9.25505 9.29012 8.92164C8.98964 8.62116 8.75913 8.25481 8.6233 7.82261C8.45865 7.39041 8.38867 6.92528 8.38867 6.39018C8.38867 5.89212 8.45453 5.42287 8.6233 4.99067C8.79206 4.55847 9.02257 4.19213 9.32305 3.85871C9.62353 3.55823 9.98987 3.29068 10.3891 3.12603C10.8213 2.96138 11.2535 2.85848 11.7887 2.85848C12.3567 2.85848 12.8547 2.95727 13.2869 3.19189C13.7191 3.42651 14.0526 3.68995 14.3201 4.08922C14.5877 4.45556 14.7852 4.88776 14.9211 5.35289C14.9869 5.81802 15.0199 6.28727 14.9869 6.81826H10.1586C10.1586 7.3616 10.3562 7.85966 10.6238 8.12721ZM12.723 4.62844C12.4884 4.39382 12.1221 4.2621 11.6899 4.2621C11.3894 4.2621 11.1589 4.32796 10.9572 4.42675C10.7555 4.52554 10.6238 4.66137 10.492 4.79309C10.3603 4.92481 10.2904 5.09357 10.2574 5.25822C10.2245 5.42287 10.1916 5.5587 10.1916 5.69042H13.1882C13.1223 5.19648 12.9535 4.86307 12.723 4.62844ZM9.7923 1.13379H13.5216V2.03112H9.7923V1.13379Z" fill="white"/>
</svg>
