<svg width="22" height="20" viewBox="0 0 22 20" fill="none" xmlns="http://www.w3.org/2000/svg">
<path d="M0.758789 13.8968C2.28044 16.446 4.68408 18.4078 7.54863 19.3615C8.17403 19.4758 8.40194 19.0898 8.40194 18.7583C8.40194 18.6211 8.39963 18.3786 8.39655 18.0541C8.39297 17.6782 8.38835 17.1924 8.38506 16.6327C4.90813 17.3878 4.17452 14.9568 4.17452 14.9568C3.60591 13.5134 2.78636 13.1289 2.78636 13.1289C1.65143 12.3531 2.87231 12.3685 2.87231 12.3685C4.12695 12.4575 4.78688 13.6569 4.78688 13.6569C5.90186 15.5668 7.71285 15.0151 8.42496 14.6959C8.53853 13.8879 8.86083 13.3369 9.21842 13.0246C6.44286 12.7092 3.52457 11.6364 3.52457 6.84651C3.52457 5.48213 4.01184 4.36638 4.81144 3.49235C4.68252 3.1762 4.25356 1.90544 4.93345 0.184239C4.93345 0.184239 5.9832 -0.151867 8.37125 1.46574C9.36805 1.18872 10.4378 1.04983 11.5006 1.04522C12.5618 1.04983 13.6315 1.18872 14.6299 1.46574C17.0164 -0.151867 18.0638 0.184239 18.0638 0.184239C18.746 1.90544 18.3171 3.1762 18.1882 3.49235C18.9893 4.36638 19.4735 5.48213 19.4735 6.84651C19.4735 11.6487 16.5506 12.7053 13.7658 13.0146C14.2147 13.4006 14.6145 14.1633 14.6145 15.3297C14.6145 16.447 14.6077 17.42 14.6031 18.0646C14.6009 18.3839 14.5992 18.6226 14.5992 18.7583C14.5992 19.0929 14.824 19.4819 15.4586 19.3599C17.7406 18.5982 19.7298 17.1971 21.213 15.3689C18.9212 18.1942 15.4216 19.9999 11.5002 19.9999C6.93432 19.9999 2.94023 17.5519 0.758789 13.8968Z" fill="white"/>
</svg>
