<svg width="23" height="23" viewBox="0 0 23 23" fill="none" xmlns="http://www.w3.org/2000/svg">
<path d="M9.48497 11.5L0.417327 20.5676C-0.139109 21.1241 -0.139109 22.0262 0.417327 22.5827C0.973762 23.1391 1.87592 23.1391 2.43236 22.5827L11.5 13.515L20.5676 22.5827C21.1241 23.1391 22.0262 23.1391 22.5827 22.5827C23.1391 22.0262 23.1391 21.1241 22.5827 20.5676L13.515 11.5L22.5827 2.43236C23.1391 1.87592 23.1391 0.973762 22.5827 0.417327C22.0262 -0.139109 21.1241 -0.139109 20.5676 0.417327L11.5 9.48497L2.43236 0.417327C1.87592 -0.139109 0.973762 -0.139109 0.417327 0.417327C-0.139109 0.973762 -0.139109 1.87592 0.417327 2.43236L9.48497 11.5Z" fill="#0C2C52"/>
</svg>
