<svg width="25" height="25" viewBox="0 0 25 25" fill="none" xmlns="http://www.w3.org/2000/svg">
<path d="M3.75 0H7.5C9.57107 0 11.25 1.67893 11.25 3.75V7.5C11.25 9.57107 9.57107 11.25 7.5 11.25H3.75C1.67893 11.25 0 9.57107 0 7.5V3.75C0 1.67893 1.67893 0 3.75 0ZM3.75 2.5C3.05964 2.5 2.5 3.05964 2.5 3.75V7.5C2.5 8.19036 3.05964 8.75 3.75 8.75H7.5C8.19036 8.75 8.75 8.19036 8.75 7.5V3.75C8.75 3.05964 8.19036 2.5 7.5 2.5H3.75ZM3.75 13.75H7.5C9.57107 13.75 11.25 15.4289 11.25 17.5V21.25C11.25 23.3211 9.57107 25 7.5 25H3.75C1.67893 25 0 23.3211 0 21.25V17.5C0 15.4289 1.67893 13.75 3.75 13.75ZM3.75 16.25C3.05964 16.25 2.5 16.8096 2.5 17.5V21.25C2.5 21.9404 3.05964 22.5 3.75 22.5H7.5C8.19036 22.5 8.75 21.9404 8.75 21.25V17.5C8.75 16.8096 8.19036 16.25 7.5 16.25H3.75ZM17.5 0H21.25C23.3211 0 25 1.67893 25 3.75V7.5C25 9.57107 23.3211 11.25 21.25 11.25H17.5C15.4289 11.25 13.75 9.57107 13.75 7.5V3.75C13.75 1.67893 15.4289 0 17.5 0ZM17.5 2.5C16.8096 2.5 16.25 3.05964 16.25 3.75V7.5C16.25 8.19036 16.8096 8.75 17.5 8.75H21.25C21.9404 8.75 22.5 8.19036 22.5 7.5V3.75C22.5 3.05964 21.9404 2.5 21.25 2.5H17.5ZM17.5 13.75H21.25C23.3211 13.75 25 15.4289 25 17.5V21.25C25 23.3211 23.3211 25 21.25 25H17.5C15.4289 25 13.75 23.3211 13.75 21.25V17.5C13.75 15.4289 15.4289 13.75 17.5 13.75ZM17.5 16.25C16.8096 16.25 16.25 16.8096 16.25 17.5V21.25C16.25 21.9404 16.8096 22.5 17.5 22.5H21.25C21.9404 22.5 22.5 21.9404 22.5 21.25V17.5C22.5 16.8096 21.9404 16.25 21.25 16.25H17.5Z" fill="#0C2C52"/>
</svg>
