<svg width="20" height="25" viewBox="0 0 20 25" fill="none" xmlns="http://www.w3.org/2000/svg">
<path opacity="0.7" d="M15.4855 1.70455H15.5556C18.0102 1.70455 20 3.73961 20 6.25V20.4545C20 22.9649 18.0102 25 15.5556 25H4.44444C1.98985 25 0 22.9649 0 20.4545V6.25C0 3.73961 1.98985 1.70455 4.44444 1.70455H4.51445C4.76115 0.724303 5.6312 0 6.66667 0H13.3333C14.3688 0 15.2389 0.724303 15.4855 1.70455ZM4.51445 3.97727H4.44444C3.21715 3.97727 2.22222 4.99481 2.22222 6.25V20.4545C2.22222 21.7097 3.21715 22.7273 4.44444 22.7273H15.5556C16.7829 22.7273 17.7778 21.7097 17.7778 20.4545V6.25C17.7778 4.99481 16.7829 3.97727 15.5556 3.97727H15.4855C15.2389 4.95752 14.3688 5.68182 13.3333 5.68182H6.66667C5.6312 5.68182 4.76115 4.95752 4.51445 3.97727ZM5.55556 10.7955C4.94191 10.7955 4.44444 10.2867 4.44444 9.65909C4.44444 9.03149 4.94191 8.52273 5.55556 8.52273H14.4444C15.0581 8.52273 15.5556 9.03149 15.5556 9.65909C15.5556 10.2867 15.0581 10.7955 14.4444 10.7955H5.55556ZM5.55556 15.3409C4.94191 15.3409 4.44444 14.8321 4.44444 14.2045C4.44444 13.5769 4.94191 13.0682 5.55556 13.0682H14.4444C15.0581 13.0682 15.5556 13.5769 15.5556 14.2045C15.5556 14.8321 15.0581 15.3409 14.4444 15.3409H5.55556ZM5.55556 19.8864C4.94191 19.8864 4.44444 19.3776 4.44444 18.75C4.44444 18.1224 4.94191 17.6136 5.55556 17.6136H12.2222C12.8359 17.6136 13.3333 18.1224 13.3333 18.75C13.3333 19.3776 12.8359 19.8864 12.2222 19.8864H5.55556ZM6.66667 2.27273V3.40909H13.3333V2.27273H6.66667Z" fill="#0C2C52"/>
</svg>
