<svg width="24" height="25" viewBox="0 0 24 25" fill="none" xmlns="http://www.w3.org/2000/svg">
<path d="M16.8 22.6176H19.2C20.5255 22.6176 21.6 21.5509 21.6 20.2351V9.99998C21.6 9.24059 21.2353 8.52669 20.6182 8.07796L13.4182 2.84287C12.5739 2.22897 11.4261 2.22897 10.5818 2.84287L3.38183 8.07796C2.76469 8.52669 2.4 9.24059 2.4 9.99998V20.2351C2.4 21.5509 3.47452 22.6176 4.8 22.6176H7.2V13.0878C7.2 12.4299 7.73726 11.8966 8.4 11.8966H15.6C16.2627 11.8966 16.8 12.4299 16.8 13.0878V22.6176ZM14.4 22.6176V14.279H9.6V22.6176H14.4ZM1.96367 6.15595L9.16367 0.920849C10.8523 -0.30695 13.1477 -0.30695 14.8363 0.920849L22.0363 6.15595C23.2706 7.0534 24 8.4812 24 9.99998V20.2351C24 22.8667 21.851 25 19.2 25H4.8C2.14903 25 0 22.8667 0 20.2351V9.99998C0 8.4812 0.72937 7.0534 1.96367 6.15595Z" fill="#0C2C52"/>
</svg>
