<svg width="20" height="20" viewBox="0 0 20 20" fill="none" xmlns="http://www.w3.org/2000/svg">
<path d="M10 20C4.47715 20 0 15.5228 0 10C0 4.47715 4.47715 0 10 0C15.5228 0 20 4.47715 20 10C20 15.5228 15.5228 20 10 20ZM10 18.1818C14.5187 18.1818 18.1818 14.5187 18.1818 10C18.1818 5.48131 14.5187 1.81818 10 1.81818C5.48131 1.81818 1.81818 5.48131 1.81818 10C1.81818 14.5187 5.48131 18.1818 10 18.1818ZM9.54545 15V10H8.63636C8.13429 10 7.72727 9.59299 7.72727 9.09091C7.72727 8.58883 8.13429 8.18182 8.63636 8.18182H10.4545C10.9566 8.18182 11.3636 8.58883 11.3636 9.09091V15C11.3636 15.5021 10.9566 15.9091 10.4545 15.9091C9.95247 15.9091 9.54545 15.5021 9.54545 15ZM9.09091 5.45455C9.09091 4.95247 9.49792 4.54545 10 4.54545C10.5021 4.54545 10.9091 4.95247 10.9091 5.45455C10.9091 5.95662 10.5021 6.36364 10 6.36364C9.49792 6.36364 9.09091 5.95662 9.09091 5.45455Z" fill="#2261B1"/>
</svg>
