<svg width="23" height="25" viewBox="0 0 23 25" fill="none" xmlns="http://www.w3.org/2000/svg">
<g opacity="0.7">
<path d="M16.0822 21.0227C15.7981 23.2649 13.8549 25 11.5 25C9.14505 25 7.20184 23.2649 6.91778 21.0227H2.30896C1.03376 21.0227 0 20.0052 0 18.75C0 18.2463 0.169969 17.757 0.483211 17.3587L2.2641 15.0945V9.09091C2.2641 4.07014 6.39913 0 11.4999 0C16.6008 0 20.7358 4.07014 20.7358 9.09091V15.0945L22.5167 17.3587C23.2973 18.3512 23.1127 19.7787 22.1044 20.5471C21.6998 20.8554 21.2026 21.0227 20.6909 21.0227H16.0822ZM13.7362 21.0227H9.26375C9.52007 22.003 10.4241 22.7273 11.5 22.7273C12.5759 22.7273 13.4799 22.003 13.7362 21.0227ZM4.57306 9.09091V15.483C4.57306 15.7348 4.48808 15.9795 4.33146 16.1786L2.30896 18.75H20.6909L18.6684 16.1786C18.5118 15.9795 18.4268 15.7348 18.4268 15.483V9.09091C18.4268 5.32533 15.3256 2.27273 11.4999 2.27273C7.67433 2.27273 4.57306 5.32533 4.57306 9.09091Z" fill="#0C2C52"/>
</g>
</svg>
