<svg width="24" height="25" viewBox="0 0 24 25" fill="none" xmlns="http://www.w3.org/2000/svg">
<path opacity="0.7" fill-rule="evenodd" clip-rule="evenodd" d="M16.8002 7C16.8002 9.65097 14.6512 11.8 12.0002 11.8C9.34927 11.8 7.20023 9.65097 7.20023 7C7.20023 4.34903 9.34927 2.2 12.0002 2.2C14.6512 2.2 16.8002 4.34903 16.8002 7ZM19.0002 7C19.0002 10.866 15.8662 14 12.0002 14C8.13424 14 5.00023 10.866 5.00023 7C5.00023 3.13401 8.13424 0 12.0002 0C15.8662 0 19.0002 3.13401 19.0002 7ZM6.2069 18.1999H17.7931C20.0061 18.1999 21.8 19.9939 21.8 22.2068C21.8 22.5344 21.5345 22.7999 21.2069 22.7999H2.7931C2.46554 22.7999 2.2 22.5344 2.2 22.2068C2.2 19.9939 3.99395 18.1999 6.2069 18.1999ZM0 22.2068C0 18.7789 2.77892 15.9999 6.2069 15.9999H17.7931C21.2211 15.9999 24 18.7789 24 22.2068C24 23.7494 22.7495 24.9999 21.2069 24.9999H2.7931C1.25051 24.9999 0 23.7494 0 22.2068Z" fill="#0C2C52"/>
</svg>
