<svg width="24" height="26" viewBox="0 0 24 26" fill="none" xmlns="http://www.w3.org/2000/svg">
<path d="M1.44889 11.55L0.43777 9.74445C-0.529746 8.01676 0.160085 5.87103 1.97855 4.95181C2.47934 4.69866 3.0343 4.55738 3.60122 4.53872L5.7526 4.46789C6.54681 4.44174 7.27535 4.04211 7.6963 3.40171L8.83655 1.66699C9.92763 0.0070823 12.2284 -0.4982 13.9756 0.538413C14.4567 0.823886 14.863 1.20987 15.1635 1.66699L16.3037 3.40171C16.7246 4.04211 17.4532 4.44174 18.2474 4.46789L20.3988 4.53872C22.4574 4.6065 24.0684 6.24696 23.997 8.20279C23.9774 8.7414 23.8287 9.26866 23.5622 9.74445L22.5511 11.55C22.1778 12.2166 22.1778 13.0158 22.5511 13.6824L23.5622 15.4879C24.5297 17.2156 23.8399 19.3613 22.0214 20.2806C21.5207 20.5337 20.9657 20.675 20.3988 20.6936L18.2474 20.7645C17.4532 20.7906 16.7246 21.1903 16.3037 21.8307L15.1635 23.5654C14.0724 25.2253 11.7716 25.7306 10.0244 24.6939C9.54329 24.4085 9.13702 24.0225 8.83655 23.5654L7.6963 21.8307C7.27535 21.1903 6.54681 20.7906 5.7526 20.7645L3.60122 20.6936C1.54263 20.6259 -0.0683623 18.9854 0.00297695 17.0296C0.0226231 16.491 0.171326 15.9637 0.43777 15.4879L1.44889 13.6824C1.82216 13.0158 1.82216 12.2166 1.44889 11.55ZM3.55808 10.4838C4.30462 11.8169 4.30462 13.4154 3.55808 14.7485L2.54696 16.5541C2.4512 16.7251 2.39775 16.9146 2.39069 17.1082C2.36505 17.8112 2.94407 18.4008 3.68397 18.4251L5.83534 18.496C7.42377 18.5483 8.88086 19.3475 9.72274 20.6283L10.863 22.363C10.971 22.5273 11.117 22.6661 11.2899 22.7687C11.9179 23.1412 12.7449 22.9596 13.137 22.363L14.2773 20.6283C15.1191 19.3475 16.5762 18.5483 18.1647 18.496L20.316 18.4251C20.5198 18.4184 20.7193 18.3676 20.8993 18.2767C21.5528 17.9463 21.8008 17.175 21.453 16.5541L20.4419 14.7485C19.6954 13.4154 19.6954 11.8169 20.4419 10.4838L21.453 8.67828C21.5488 8.50727 21.6023 8.31776 21.6093 8.12417C21.635 7.42121 21.0559 6.8316 20.316 6.80723L18.1647 6.7364C16.5762 6.6841 15.1191 5.88485 14.2773 4.60405L13.137 2.86933C13.029 2.70503 12.883 2.5663 12.7101 2.4637C12.0821 2.09112 11.2551 2.27273 10.863 2.86933L9.72274 4.60405C8.88086 5.88485 7.42377 6.6841 5.83534 6.7364L3.68397 6.80723C3.48021 6.81394 3.28074 6.86472 3.10075 6.95571C2.44715 7.28609 2.19922 8.05731 2.54696 8.67828L3.55808 10.4838ZM12 17.7234C9.03115 17.7234 6.62443 15.4368 6.62443 12.6162C6.62443 9.79554 9.03115 7.50896 12 7.50896C14.9688 7.50896 17.3756 9.79554 17.3756 12.6162C17.3756 15.4368 14.9688 17.7234 12 17.7234ZM12 15.4535C13.6494 15.4535 14.9864 14.1832 14.9864 12.6162C14.9864 11.0492 13.6494 9.77883 12 9.77883C10.3506 9.77883 9.01357 11.0492 9.01357 12.6162C9.01357 14.1832 10.3506 15.4535 12 15.4535Z" fill="#0C2C52"/>
</svg>
