<svg width="25" height="25" viewBox="0 0 25 25" fill="none" xmlns="http://www.w3.org/2000/svg">
<path d="M24.9085 14.8454C24.8475 14.9958 24.7559 15.1368 24.6339 15.2589L15.2589 24.6339C15.1368 24.7559 14.9958 24.8475 14.8454 24.9085C14.712 24.965 14.5476 25 14.375 25H5C2.23858 25 0 22.7614 0 20V5C0 2.23858 2.23858 0 5 0H20C22.7614 0 25 2.23858 25 5V14.375C25 14.5476 24.965 14.712 24.9018 14.8616L24.9085 14.8454ZM20.7322 15.625H18.125C16.7443 15.625 15.625 16.7443 15.625 18.125V20.7322L20.7322 15.625ZM13.1682 17.4648C13.4913 15.0154 15.5874 13.125 18.125 13.125H22.5V5C22.5 3.61929 21.3807 2.5 20 2.5H5C3.61929 2.5 2.5 3.61929 2.5 5V20C2.5 21.3807 3.61929 22.5 5 22.5H13.125V19.978C12.9177 19.9926 12.7093 20 12.5 20C8.76206 20 5.47398 17.6346 4.24821 14.1666C4.01816 13.5157 4.35931 12.8015 5.01021 12.5715C5.6611 12.3414 6.37526 12.6825 6.60531 13.3334C7.48066 15.81 9.82981 17.5 12.5 17.5C12.7247 17.5 12.9476 17.4882 13.1682 17.4648ZM8.75 10C8.05964 10 7.5 9.44036 7.5 8.75C7.5 8.05964 8.05964 7.5 8.75 7.5C9.44036 7.5 10 8.05964 10 8.75C10 9.44036 9.44036 10 8.75 10ZM16.25 10C15.5596 10 15 9.44036 15 8.75C15 8.05964 15.5596 7.5 16.25 7.5C16.9404 7.5 17.5 8.05964 17.5 8.75C17.5 9.44036 16.9404 10 16.25 10Z" fill="#0C2C52"/>
</svg>
