<svg width="26" height="25" viewBox="0 0 26 25" fill="none" xmlns="http://www.w3.org/2000/svg">
<path d="M22.6768 4.84743L12.0672 15.0487L16.3319 22.6641L22.6768 4.84743ZM10.3498 13.3973L20.9599 3.19568L2.42927 9.29655L10.3498 13.3973ZM1.27777 11.3527C0.0967227 10.7412 -0.345169 9.32497 0.290782 8.18938C0.580866 7.67139 1.06359 7.27776 1.64246 7.08718L22.7844 0.126567C24.0535 -0.291246 25.4345 0.359219 25.869 1.57942C26.0437 2.06979 26.0437 2.60209 25.869 3.09246L18.6298 23.4206C18.1952 24.6408 16.8142 25.2912 15.5451 24.8734C14.9663 24.6829 14.4835 24.2892 14.1935 23.7712L9.67297 15.6992L1.27777 11.3527Z" fill="#0C2C52"/>
</svg>
