<svg width="24" height="28" viewBox="0 0 24 28" fill="none" xmlns="http://www.w3.org/2000/svg">
<path d="M14.9663 22.4319L6.78731 16.5898C6.06675 17.2373 5.11376 17.6313 4.06875 17.6313C1.82164 17.6313 0 15.8096 0 13.5625C0 11.3154 1.82164 9.49375 4.06875 9.49375C5.11376 9.49375 6.06675 9.88771 6.78731 10.5352L14.9663 4.69305C14.935 4.48953 14.9187 4.28104 14.9187 4.06875C14.9187 1.82164 16.7404 0 18.9875 0C21.2346 0 23.0562 1.82164 23.0562 4.06875C23.0562 6.31586 21.2346 8.1375 18.9875 8.1375C17.9425 8.1375 16.9895 7.74354 16.2689 7.09603L8.0899 12.9382C8.12124 13.1417 8.1375 13.3502 8.1375 13.5625C8.1375 13.7748 8.12124 13.9833 8.0899 14.1868L16.2689 20.029C16.9895 19.3815 17.9425 18.9875 18.9875 18.9875C21.2346 18.9875 23.0562 20.8091 23.0562 23.0563C23.0562 25.3034 21.2346 27.125 18.9875 27.125C16.7404 27.125 14.9187 25.3034 14.9187 23.0563C14.9187 22.844 14.935 22.6355 14.9663 22.4319ZM4.06875 14.9188C4.81779 14.9188 5.425 14.3115 5.425 13.5625C5.425 12.8135 4.81779 12.2063 4.06875 12.2063C3.31971 12.2063 2.7125 12.8135 2.7125 13.5625C2.7125 14.3115 3.31971 14.9188 4.06875 14.9188ZM18.9875 5.425C19.7365 5.425 20.3437 4.81779 20.3437 4.06875C20.3437 3.31971 19.7365 2.7125 18.9875 2.7125C18.2385 2.7125 17.6312 3.31971 17.6312 4.06875C17.6312 4.81779 18.2385 5.425 18.9875 5.425ZM18.9875 24.4125C19.7365 24.4125 20.3437 23.8053 20.3437 23.0563C20.3437 22.3072 19.7365 21.7 18.9875 21.7C18.2385 21.7 17.6312 22.3072 17.6312 23.0563C17.6312 23.8053 18.2385 24.4125 18.9875 24.4125Z" fill="#2261B1"/>
</svg>
