<svg width="27" height="26" viewBox="0 0 27 26" fill="none" xmlns="http://www.w3.org/2000/svg">
<path d="M13.181 23.3572L9.07991 25.5609C7.25461 26.5416 4.997 25.8244 4.03738 23.9588C3.65526 23.216 3.5234 22.3651 3.66221 21.5378L4.44546 16.8705L1.12759 13.565C-0.3491 12.0938 -0.379316 9.67772 1.06011 8.16845C1.63329 7.56745 2.38434 7.17633 3.19697 7.05565L7.78214 6.37468L9.83269 2.12817C10.7453 0.238149 12.9843 -0.537846 14.8335 0.394933C15.5699 0.766371 16.1659 1.37555 16.5293 2.12817L18.5799 6.37468L23.1651 7.05565C25.2058 7.35872 26.6197 9.29526 26.3232 11.381C26.2051 12.2116 25.8225 12.9792 25.2344 13.565L21.9166 16.8705L22.6998 21.5378C23.0484 23.6152 21.6833 25.588 19.6508 25.9443C18.8415 26.0862 18.009 25.9514 17.2821 25.5609L13.181 23.3572ZM12.6018 20.7941C12.9644 20.5993 13.3976 20.5993 13.7602 20.7941L18.4405 23.3089C18.6827 23.4391 18.9603 23.484 19.23 23.4367C19.9075 23.318 20.3626 22.6604 20.2464 21.9679L19.3525 16.6414C19.2833 16.2287 19.4171 15.8077 19.7105 15.5154L23.4969 11.7432C23.6929 11.5479 23.8205 11.292 23.8598 11.0152C23.9587 10.3199 23.4873 9.6744 22.8071 9.57338L17.5744 8.79625C17.169 8.73604 16.8186 8.47581 16.6373 8.10036L14.2971 3.25413C14.176 3.00326 13.9773 2.8002 13.7318 2.67639C13.1154 2.36546 12.3691 2.62412 12.0649 3.25413L9.72476 8.10036C9.54347 8.47581 9.19302 8.73604 8.78763 8.79625L3.55492 9.57338C3.28404 9.61361 3.0337 9.74398 2.84263 9.94431C2.36283 10.4474 2.3729 11.2528 2.86513 11.7432L6.65156 15.5154C6.9449 15.8077 7.07876 16.2287 7.00951 16.6414L6.11565 21.9679C6.06938 22.2437 6.11334 22.5273 6.24071 22.7749C6.56058 23.3968 7.31312 23.6359 7.92155 23.3089L12.6018 20.7941Z" fill="#0C2C52"/>
</svg>
