<svg width="26" height="25" viewBox="0 0 26 25" fill="none" xmlns="http://www.w3.org/2000/svg">
<path d="M13 25C6.09644 25 0.5 19.4036 0.5 12.5C0.5 5.59644 6.09644 0 13 0C19.9036 0 25.5 5.59644 25.5 12.5C25.5 19.4036 19.9036 25 13 25ZM13 22.7273C18.6484 22.7273 23.2273 18.1484 23.2273 12.5C23.2273 6.85163 18.6484 2.27273 13 2.27273C7.35163 2.27273 2.77273 6.85163 2.77273 12.5C2.77273 18.1484 7.35163 22.7273 13 22.7273ZM11.8636 18.75C11.8636 18.1224 12.3724 17.6136 13 17.6136C13.6276 17.6136 14.1364 18.1224 14.1364 18.75C14.1364 19.3776 13.6276 19.8864 13 19.8864C12.3724 19.8864 11.8636 19.3776 11.8636 18.75ZM11.8636 6.53409C11.8636 5.90649 12.3724 5.39773 13 5.39773C13.6276 5.39773 14.1364 5.90649 14.1364 6.53409V14.4886C14.1364 15.1162 13.6276 15.625 13 15.625C12.3724 15.625 11.8636 15.1162 11.8636 14.4886V6.53409Z" fill="#0C2C52"/>
</svg>
