<svg width="15" height="15" viewBox="0 0 15 15" fill="none" xmlns="http://www.w3.org/2000/svg">
<path d="M7.50001 1.35134C9.50258 1.35134 9.7398 1.359 10.5306 1.39508C11.2619 1.42842 11.659 1.5506 11.9233 1.65331C12.2734 1.78937 12.5232 1.95189 12.7856 2.21432C13.0481 2.47678 13.2106 2.72662 13.3467 3.0767C13.4494 3.34098 13.5716 3.7381 13.6049 4.46934C13.641 5.26018 13.6486 5.4974 13.6486 7.49996C13.6486 9.50255 13.641 9.73977 13.6049 10.5306C13.5716 11.2618 13.4494 11.659 13.3467 11.9232C13.2106 12.2733 13.0481 12.5232 12.7857 12.7856C12.5232 13.0481 12.2734 13.2106 11.9233 13.3466C11.659 13.4493 11.2619 13.5715 10.5306 13.6049C9.73992 13.641 9.50273 13.6486 7.50001 13.6486C5.49727 13.6486 5.26011 13.641 4.46936 13.6049C3.73811 13.5715 3.34099 13.4493 3.07671 13.3466C2.72663 13.2106 2.47679 13.0481 2.21436 12.7856C1.95193 12.5232 1.78937 12.2733 1.65332 11.9232C1.55061 11.659 1.42843 11.2618 1.39508 10.5306C1.359 9.73977 1.35135 9.50255 1.35135 7.49996C1.35135 5.4974 1.359 5.26018 1.39508 4.46934C1.42843 3.7381 1.55061 3.34098 1.65332 3.0767C1.78937 2.72662 1.9519 2.47678 2.21436 2.21435C2.47679 1.95189 2.72663 1.78937 3.07671 1.65331C3.34099 1.5506 3.73811 1.42842 4.46936 1.39508C5.2602 1.359 5.49742 1.35134 7.50001 1.35134ZM7.50001 0C5.46312 0 5.20771 0.00863364 4.40776 0.0451331C3.60947 0.0815433 3.06427 0.208339 2.58721 0.393724C2.09402 0.585391 1.67577 0.84184 1.25879 1.25879C0.841843 1.67576 0.585393 2.09402 0.393755 2.58721C0.20834 3.06426 0.0815436 3.60946 0.0451333 4.40774C0.00863368 5.2077 0 5.4631 0 7.49996C0 9.53684 0.00863368 9.79225 0.0451333 10.5922C0.0815436 11.3905 0.20834 11.9357 0.393755 12.4127C0.585393 12.9059 0.841843 13.3242 1.25879 13.7412C1.67577 14.1581 2.09402 14.4146 2.58721 14.6062C3.06427 14.7916 3.60947 14.9184 4.40776 14.9548C5.20771 14.9913 5.46312 14.9999 7.50001 14.9999C9.53688 14.9999 9.79228 14.9913 10.5922 14.9548C11.3905 14.9184 11.9357 14.7916 12.4128 14.6062C12.906 14.4146 13.3242 14.1581 13.7412 13.7412C14.1582 13.3242 14.4146 12.9059 14.6063 12.4127C14.7917 11.9357 14.9185 11.3905 14.9549 10.5922C14.9914 9.79225 15 9.53684 15 7.49996C15 5.4631 14.9914 5.2077 14.9549 4.40774C14.9185 3.60946 14.7917 3.06426 14.6063 2.58721C14.4146 2.09402 14.1582 1.67576 13.7412 1.25879C13.3242 0.84184 12.906 0.585391 12.4128 0.393724C11.9357 0.208339 11.3905 0.0815433 10.5922 0.0451331C9.79228 0.00863364 9.53688 0 7.50001 0Z" fill="white"/>
<path d="M7.50371 3.65234C5.37664 3.65234 3.65234 5.37663 3.65234 7.50367C3.65234 9.63073 5.37664 11.355 7.50371 11.355C9.63075 11.355 11.355 9.63073 11.355 7.50367C11.355 5.37663 9.63075 3.65234 7.50371 3.65234ZM7.50371 10.0037C6.12297 10.0037 5.00369 8.88439 5.00369 7.50367C5.00369 6.12297 6.12297 5.00369 7.50371 5.00369C8.88441 5.00369 10.0037 6.12297 10.0037 7.50367C10.0037 8.88439 8.88441 10.0037 7.50371 10.0037Z" fill="white"/>
<path d="M12.4069 3.49767C12.4069 3.9947 12.004 4.39766 11.5069 4.39766C11.0099 4.39766 10.6069 3.9947 10.6069 3.49767C10.6069 3.00061 11.0099 2.59766 11.5069 2.59766C12.004 2.59766 12.4069 3.00061 12.4069 3.49767Z" fill="white"/>
</svg>
