<svg width="14" height="14" viewBox="0 0 14 14" fill="none" xmlns="http://www.w3.org/2000/svg">
<path fill-rule="evenodd" clip-rule="evenodd" d="M3.23422 1.42743C3.23422 2.20561 2.6417 2.83538 1.7151 2.83538C0.824597 2.83538 0.232077 2.20561 0.250414 1.42743C0.232077 0.611427 0.824583 0 1.73285 0C2.64168 0 3.21645 0.611427 3.23422 1.42743ZM0.324912 13.0119V3.94763H3.14195V13.0113H0.324912V13.0119Z" fill="white"/>
<path fill-rule="evenodd" clip-rule="evenodd" d="M5.40018 6.84057C5.40018 5.70997 5.36293 4.74612 5.32568 3.94903H7.77254L7.90262 5.1908H7.95821C8.32897 4.61605 9.25557 3.74561 10.7569 3.74561C12.6101 3.74561 14.0003 4.96904 14.0003 7.63709V13.0133H11.1833V7.99007C11.1833 6.82166 10.7758 6.02514 9.7564 6.02514C8.97764 6.02514 8.51464 6.56265 8.32955 7.08124C8.25505 7.26691 8.21838 7.52591 8.21838 7.78607V13.0133H5.40132V6.84057H5.40018Z" fill="white"/>
</svg>
