<svg width="24" height="26" viewBox="0 0 24 26" fill="none" xmlns="http://www.w3.org/2000/svg">
<path d="M12.1204 0.000641866C13.0923 0.0110103 13.5674 1.28935 12.8733 2.02642C11.6245 3.35239 10.9091 5.15862 10.9091 7.09091C10.9091 11.0071 13.8396 14.1818 17.4545 14.1818C19.2382 14.1818 20.9055 13.4068 22.1295 12.054C22.8098 11.302 23.9898 11.8166 23.9994 12.8696C23.9999 12.9347 23.9999 12.9347 24 13C24 20.1797 18.6274 26 12 26C5.37258 26 0 20.1797 0 13C0 5.8203 5.37258 0 12 0C12.0602 0.000107144 12.0602 0.000107093 12.1204 0.000641866ZM2.18182 13C2.18182 18.8743 6.57757 23.6364 12 23.6364C16.6485 23.6364 20.5425 20.1366 21.5594 15.4366C20.3164 16.1551 18.9136 16.5455 17.4545 16.5455C12.6346 16.5455 8.72727 12.3125 8.72727 7.09091C8.72727 5.51029 9.08757 3.99057 9.75083 2.64403C5.41237 3.74559 2.18182 7.96409 2.18182 13Z" fill="#2261B1"/>
</svg>
